<?xml version="1.0" encoding="UTF-8" standalone="no"?><!DOCTYPE svg PUBLIC "-//W3C//DTD SVG 1.1//EN" "http://www.w3.org/Graphics/SVG/1.1/DTD/svg11.dtd"><svg width="100%" height="100%" viewBox="0 0 5334 4000" version="1.1" xmlns="http://www.w3.org/2000/svg" xmlns:xlink="http://www.w3.org/1999/xlink" xml:space="preserve" xmlns:serif="http://www.serif.com/" style="fill-rule:evenodd;clip-rule:evenodd;stroke-linejoin:round;stroke-miterlimit:2;"><text x="0px" y="1416.67px" style="font-family:'Futura-Medium', 'Futura', sans-serif;font-weight:500;font-size:979.167px;">SEB<tspan x="1692.51px 2417.8px 3002.52px 3474.89px " y="1416.67px 1416.67px 1416.67px 1416.67px ">ASTI</tspan>AN</text><text x="0px" y="3507.68px" style="font-family:'Futura-Medium', 'Futura', sans-serif;font-weight:500;font-size:1525px;">C<tspan x="1100.56px 2218.99px " y="3507.68px 3507.68px ">HR</tspan>IS<tspan x="4497.56px " y="3507.68px ">T</tspan></text><g><g transform="matrix(0.986614,-0.163072,0.163072,0.986614,3.92857,-319.062)"><path d="M847.228,3049.56c-28.055,-0 -56.391,-3.928 -85.008,-11.783c-28.617,-7.856 -51.903,-17.395 -69.858,-28.617c-77.434,-46.011 -153.464,-107.453 -228.092,-184.325c-74.628,-76.872 -145.047,-161.32 -211.258,-253.342l-213.784,334.984c-6.733,10.1 -15.711,15.15 -26.933,15.15c-7.856,-0 -15.711,-3.087 -23.567,-9.259c-7.855,-6.172 -11.783,-13.747 -11.783,-22.725c-0,-7.855 2.244,-14.589 6.733,-20.2l227.25,-356.866l-45.45,-70.7c-1.122,-3.367 -2.525,-6.734 -4.208,-10.1c-1.683,-3.367 -2.525,-6.734 -2.525,-10.1c-0,-8.978 3.647,-16.834 10.942,-23.567c7.294,-6.733 14.869,-10.1 22.725,-10.1c11.222,-0 20.2,5.05 26.933,15.15l26.933,42.083l8.417,0l239.033,-375.383c6.734,-11.222 15.711,-16.833 26.934,-16.833c8.977,-0 16.833,3.366 23.566,10.1c6.734,6.733 10.1,15.15 10.1,25.25c0,5.611 -1.683,11.783 -5.05,18.516l-210.416,328.25c65.088,-10.1 128.213,-26.933 189.375,-50.5c61.161,-23.566 119.236,-52.744 174.225,-87.533c89.777,-57.233 134.666,-114.467 134.666,-171.7c0,-32.545 -17.114,-61.161 -51.341,-85.85c-34.228,-24.689 -87.253,-40.961 -159.075,-48.817c-11.223,-2.244 -23.287,-3.366 -36.192,-3.366l-39.558,-0c-54.989,-0 -115.028,5.05 -180.117,15.15c-65.089,10.1 -131.02,25.25 -197.792,45.45c-66.772,20.2 -130.739,45.169 -191.9,74.908c-61.161,29.739 -115.308,63.967 -162.441,102.683c-47.134,38.717 -83.606,81.642 -109.417,128.775c-12.345,24.689 -18.517,47.134 -18.517,67.334c0,24.688 8.978,45.45 26.934,62.283c17.955,16.833 44.327,25.25 79.116,25.25c32.545,-0 66.772,-5.331 102.684,-15.992c35.911,-10.661 62.844,-21.603 80.8,-32.825c7.855,-4.489 15.15,-6.733 21.883,-6.733c10.1,-0 15.15,5.05 15.15,15.15c-0,6.733 -2.806,14.308 -8.417,22.725c-5.611,8.417 -14.589,15.43 -26.933,21.042c-35.911,15.711 -70.42,27.213 -103.525,34.508c-33.106,7.294 -63.686,10.942 -91.742,10.942c-49.378,-0 -88.094,-11.503 -116.15,-34.509c-28.055,-23.005 -42.083,-53.586 -42.083,-91.741c-0,-29.178 7.294,-58.917 21.883,-89.217c26.934,-56.111 65.37,-106.05 115.309,-149.817c49.938,-43.766 107.172,-81.922 171.7,-114.466c64.527,-32.545 132.983,-59.198 205.366,-79.959c72.384,-20.761 144.486,-36.472 216.309,-47.133c71.822,-10.661 139.716,-15.992 203.683,-15.992c19.078,0 38.155,0.561 57.233,1.684c19.078,1.122 37.034,2.805 53.867,5.05c78.555,8.977 136.911,30.019 175.067,63.125c38.155,33.105 57.233,70.98 57.233,113.625c-0,37.033 -14.308,75.75 -42.925,116.15c-28.617,40.4 -70.42,76.872 -125.408,109.416c-42.645,25.811 -89.498,48.817 -140.559,69.017c-51.061,20.2 -101.841,36.753 -152.341,49.658c-50.5,12.906 -97.634,22.164 -141.4,27.775l-11.784,18.517c60.6,84.167 124.847,163.844 192.742,239.033c67.894,75.189 134.386,136.35 199.475,183.484c22.444,15.711 48.255,29.738 77.433,42.083c29.178,12.344 56.111,18.517 80.8,18.517c16.834,-0 30.861,-4.209 42.084,-12.625c11.222,-8.417 16.833,-22.725 16.833,-42.925c-0,-20.2 -5.611,-43.767 -16.833,-70.7c-12.345,-33.667 -28.617,-66.773 -48.817,-99.317c-20.2,-32.545 -36.472,-54.428 -48.817,-65.65c-2.244,-1.122 -3.366,-3.928 -3.366,-8.417c-0,-5.611 2.244,-10.661 6.733,-15.15c4.489,-4.489 10.661,-6.733 18.517,-6.733c10.1,-0 21.322,5.611 33.666,16.833c22.445,20.2 43.486,46.572 63.125,79.117c19.639,32.544 35.911,65.369 48.817,98.475c12.905,33.105 19.358,59.758 19.358,79.958c0,39.278 -12.625,66.492 -37.875,81.642c-25.25,15.15 -54.708,22.725 -88.375,22.725Z" style="fill-rule:nonzero;stroke:#fff;stroke-width:83.33px;"/><path d="M1399.36,3046.19c-24.689,0 -45.17,-7.014 -61.442,-21.041c-16.272,-14.028 -24.408,-37.875 -24.408,-71.542c-0,-40.4 6.733,-81.922 20.2,-124.567c13.466,-42.644 29.177,-83.044 47.133,-121.2c-41.522,35.911 -85.289,70.981 -131.3,105.209c-46.011,34.227 -86.972,60.319 -122.883,78.275c-28.056,13.466 -51.623,20.2 -70.7,20.2c-20.2,-0 -34.789,-6.734 -43.767,-20.2c-8.978,-13.467 -13.467,-29.739 -13.467,-48.817c0,-26.933 7.295,-56.111 21.884,-87.533c15.711,-32.545 34.788,-65.089 57.233,-97.634c22.444,-32.544 47.133,-66.211 74.067,-101c5.611,-6.733 14.027,-18.797 25.25,-36.191c11.222,-17.395 21.883,-36.192 31.983,-56.392c10.1,-20.2 15.15,-37.595 15.15,-52.183c-0,-16.834 3.086,-28.898 9.258,-36.192c6.172,-7.295 13.186,-10.942 21.042,-10.942c12.344,0 22.444,6.172 30.3,18.517c4.489,5.611 6.733,16.272 6.733,31.983c0,15.711 -4.769,35.911 -14.308,60.6c-9.539,24.689 -27.214,54.428 -53.025,89.217c-20.2,26.933 -42.364,55.83 -66.492,86.692c-24.128,30.861 -44.608,60.88 -61.441,90.058c-16.834,29.178 -25.25,53.867 -25.25,74.067c-0,14.588 6.172,21.883 18.516,21.883c7.856,-0 19.078,-3.367 33.667,-10.1c16.833,-7.856 41.803,-24.128 74.908,-48.817c33.106,-24.689 68.456,-52.744 106.05,-84.166c37.595,-31.423 72.664,-62.284 105.209,-92.584c32.544,-30.3 57.233,-55.55 74.066,-75.75l5.05,-8.416c6.734,-11.223 15.15,-16.834 25.25,-16.834c7.856,0 14.87,2.806 21.042,8.417c6.172,5.611 9.258,12.905 9.258,21.883c0,6.734 -1.122,11.784 -3.366,15.15c-6.734,10.1 -18.517,29.178 -35.35,57.234c-16.834,28.055 -34.789,60.88 -53.867,98.475c-19.078,37.594 -35.631,76.591 -49.658,116.991c-14.028,40.4 -21.042,78.556 -21.042,114.467c-0,17.955 3.647,30.861 10.942,38.717c7.294,7.855 16.552,11.783 27.775,11.783c15.711,-0 32.544,-4.208 50.5,-12.625c17.955,-8.417 35.069,-18.236 51.341,-29.458c16.272,-11.223 28.336,-19.639 36.192,-25.25c31.422,-22.445 58.355,-45.45 80.8,-69.017c22.444,-23.567 47.133,-49.939 74.067,-79.117c20.2,-21.322 40.68,-43.766 61.441,-67.333c20.761,-23.567 41.803,-47.133 63.125,-70.7c4.489,-5.611 10.1,-8.417 16.834,-8.417c5.611,0 10.661,3.086 15.15,9.259c4.488,6.172 6.733,13.747 6.733,22.725c-0,12.344 -3.928,23.005 -11.783,31.983c-48.256,57.233 -97.073,112.222 -146.45,164.967c-49.378,52.744 -102.123,98.194 -158.234,136.35c-24.689,15.711 -51.341,29.458 -79.958,41.241c-28.617,11.784 -55.27,17.675 -79.958,17.675Z" style="fill-rule:nonzero;stroke:#fff;stroke-width:83.33px;"/><path d="M2185.48,3046.19c-24.689,0 -45.169,-7.014 -61.441,-21.041c-16.273,-14.028 -24.409,-37.875 -24.409,-71.542c0,-39.278 6.172,-78.836 18.517,-118.675c12.344,-39.839 26.933,-78.275 43.767,-115.308c-0,-2.245 1.122,-5.612 3.366,-10.1c-34.789,32.544 -71.822,64.808 -111.1,96.791c-39.278,31.984 -76.311,58.075 -111.1,78.275c-34.789,20.2 -63.966,30.3 -87.533,30.3c-30.3,0 -53.025,-9.258 -68.175,-27.775c-15.15,-18.516 -22.725,-41.803 -22.725,-69.858c-0,-31.422 9.258,-68.175 27.775,-110.258c18.517,-42.084 42.925,-85.57 73.225,-130.459c30.3,-44.889 63.686,-86.411 100.158,-124.566c36.472,-38.156 72.945,-69.298 109.417,-93.425c36.472,-24.128 70.419,-36.192 101.842,-36.192c32.544,-0 61.441,10.942 86.691,32.825c25.25,21.883 37.875,52.464 37.875,91.742c0,13.466 -2.244,23.005 -6.733,28.616c-4.489,5.611 -9.539,8.417 -15.15,8.417c-10.1,-0 -16.272,-5.611 -18.517,-16.833c-4.489,-35.912 -15.43,-59.198 -32.825,-69.859c-17.394,-10.661 -34.508,-15.991 -51.341,-15.991c-22.445,-0 -48.537,10.941 -78.275,32.825c-29.739,21.883 -60.6,50.5 -92.584,85.85c-31.983,35.35 -61.441,72.944 -88.375,112.783c-26.933,39.839 -48.816,77.994 -65.65,114.467c-16.833,36.472 -25.25,66.491 -25.25,90.058c0,10.1 1.964,19.639 5.892,28.617c3.928,8.977 9.819,13.466 17.675,13.466c16.833,0 39.839,-8.978 69.017,-26.933c29.177,-17.956 61.161,-40.961 95.95,-69.017c34.788,-28.055 69.577,-57.794 104.366,-89.216c34.789,-31.423 66.211,-61.442 94.267,-90.059c28.055,-28.616 49.378,-51.903 63.967,-69.858c-0,-1.122 1.122,-2.806 3.366,-5.05c22.445,-35.911 47.695,-76.031 75.75,-120.358c28.056,-44.328 56.392,-88.937 85.009,-133.825c28.616,-44.889 54.988,-86.412 79.116,-124.567c24.128,-38.156 43.767,-69.017 58.917,-92.583c15.15,-23.567 22.725,-35.35 22.725,-35.35c6.733,-10.1 15.711,-15.15 26.933,-15.15c8.978,-0 16.834,3.366 23.567,10.1c6.733,6.733 10.1,14.588 10.1,23.566c-0,5.611 -1.683,11.784 -5.05,18.517c-77.433,118.955 -141.4,217.43 -191.9,295.425c-50.5,77.994 -90.9,140.558 -121.2,187.692c-30.3,47.133 -53.025,83.325 -68.175,108.575c-15.15,25.25 -25.811,43.486 -31.983,54.708c-6.173,11.222 -11.503,21.322 -15.992,30.3c-16.833,34.789 -31.422,71.261 -43.767,109.417c-12.344,38.155 -18.516,74.066 -18.516,107.733c-0,17.955 3.647,30.861 10.941,38.717c7.295,7.855 16.553,11.783 27.775,11.783c15.711,-0 32.545,-4.208 50.5,-12.625c17.956,-8.417 35.07,-18.236 51.342,-29.458c16.272,-11.223 28.336,-19.639 36.192,-25.25c31.422,-22.445 58.355,-45.45 80.8,-69.017c22.444,-23.567 47.133,-49.939 74.066,-79.117c20.2,-21.322 40.681,-43.766 61.442,-67.333c20.761,-23.567 41.803,-47.133 63.125,-70.7c4.489,-5.611 10.1,-8.417 16.833,-8.417c5.611,0 10.661,3.086 15.15,9.259c4.489,6.172 6.734,13.747 6.734,22.725c-0,12.344 -3.928,23.005 -11.784,31.983c-48.255,57.233 -97.072,112.222 -146.45,164.967c-49.378,52.744 -102.122,98.194 -158.233,136.35c-24.689,15.711 -51.342,29.458 -79.958,41.241c-28.617,11.784 -55.27,17.675 -79.959,17.675Z" style="fill-rule:nonzero;stroke:#fff;stroke-width:83.33px;"/><path d="M2712.36,2886.28c-44.889,-0 -74.909,-16.273 -90.059,-48.817c-15.15,-32.545 -21.603,-67.895 -19.358,-106.05c2.244,-29.178 11.783,-64.528 28.617,-106.05c16.833,-41.522 38.997,-82.203 66.491,-122.042c27.495,-39.839 58.917,-73.225 94.267,-100.158c35.35,-26.933 73.225,-40.4 113.625,-40.4c40.4,-0 71.542,14.869 93.425,44.608c21.883,29.739 32.825,63.125 32.825,100.159c-0,20.2 -3.367,39.838 -10.1,58.916c13.467,3.367 29.739,5.05 48.817,5.05c29.177,0 60.88,-4.769 95.108,-14.308c34.228,-9.539 60.319,-26.092 78.275,-49.658c5.611,-5.612 11.783,-8.417 18.517,-8.417c6.733,-0 12.905,2.525 18.516,7.575c5.611,5.05 8.417,12.064 8.417,21.042c-0,13.466 -7.856,28.055 -23.567,43.766c-23.566,23.567 -51.622,39.559 -84.166,47.975c-32.545,8.417 -63.406,12.625 -92.584,12.625c-17.955,0 -34.228,-1.122 -48.816,-3.366c-14.589,-2.245 -26.373,-4.489 -35.35,-6.734c-15.712,41.522 -37.875,82.764 -66.492,123.725c-28.617,40.961 -62.003,74.628 -100.158,101c-38.156,26.372 -80.239,39.559 -126.25,39.559Zm3.366,-57.234c33.667,0 65.931,-11.783 96.792,-35.35c30.861,-23.566 58.355,-53.305 82.483,-89.216c24.128,-35.912 42.364,-72.945 54.709,-111.1c-14.589,-14.589 -25.531,-32.264 -32.825,-53.025c-7.295,-20.762 -10.942,-40.12 -10.942,-58.075c-0,-22.445 5.611,-42.084 16.833,-58.917c-3.366,-1.122 -8.416,-1.683 -15.15,-1.683c-22.444,-0 -46.853,10.38 -73.225,31.141c-26.372,20.761 -51.341,47.134 -74.908,79.117c-23.567,31.983 -43.206,65.369 -58.917,100.158c-15.711,34.789 -24.689,66.772 -26.933,95.95c-1.122,5.611 -1.683,11.222 -1.683,16.834l-0,16.833c-0,19.078 3.086,35.069 9.258,47.975c6.172,12.905 17.675,19.358 34.508,19.358Z" style="fill-rule:nonzero;stroke:#fff;stroke-width:83.33px;"/><path d="M3247.66,3076.49c-48.256,0 -87.814,-14.308 -118.675,-42.925c-30.862,-28.616 -46.292,-73.225 -46.292,-133.825c-0,-48.255 10.38,-105.208 31.142,-170.858c20.761,-65.65 48.255,-134.947 82.483,-207.892c34.228,-72.944 73.225,-144.486 116.992,-214.625c43.766,-70.139 88.655,-134.386 134.666,-192.741c46.011,-58.356 90.339,-104.928 132.984,-139.717c25.811,-20.2 51.061,-30.3 75.75,-30.3c17.955,-0 33.386,5.05 46.291,15.15c12.906,10.1 20.481,23.567 22.725,40.4c1.122,4.489 1.684,11.783 1.684,21.883c-0,30.3 -8.417,68.456 -25.25,114.467c-21.323,57.233 -51.903,115.869 -91.742,175.908c-39.839,60.039 -85.008,119.797 -135.508,179.275c-50.5,59.478 -102.684,116.431 -156.55,170.859c-53.867,54.427 -106.05,104.086 -156.55,148.975c-1.123,2.244 -1.684,5.05 -1.684,8.416c-2.244,14.589 -4.208,27.775 -5.891,39.559c-1.684,11.783 -2.525,23.286 -2.525,34.508c-0,41.522 9.258,71.822 27.775,90.9c18.516,19.078 42.925,28.617 73.225,28.617c44.888,-0 95.95,-17.395 153.183,-52.184c42.644,-25.811 82.483,-56.111 119.517,-90.9c37.033,-34.789 70.7,-68.455 101,-101c20.2,-21.322 40.68,-43.766 61.441,-67.333c20.761,-23.567 41.803,-47.133 63.125,-70.7c4.489,-5.611 10.1,-8.417 16.834,-8.417c5.611,0 10.661,3.086 15.15,9.259c4.488,6.172 6.733,13.747 6.733,22.725c-0,12.344 -3.928,23.005 -11.783,31.983c-53.867,63.967 -109.978,127.092 -168.334,189.375c-58.355,62.283 -123.444,113.064 -195.266,152.342c-58.356,32.544 -113.906,48.816 -166.65,48.816Zm-60.6,-360.233c40.4,-37.033 83.044,-79.958 127.933,-128.775c44.889,-48.817 89.217,-100.158 132.983,-154.025c43.767,-53.867 82.764,-107.733 116.992,-161.6c34.228,-53.867 60.319,-104.928 78.275,-153.183c11.222,-30.3 16.833,-54.989 16.833,-74.067c0,-21.322 -6.172,-31.983 -18.516,-31.983c-8.978,-0 -21.323,7.855 -37.034,23.566c-54.989,53.867 -109.697,118.114 -164.125,192.742c-54.428,74.628 -103.805,153.744 -148.133,237.35c-44.328,83.605 -79.397,166.93 -105.208,249.975Z" style="fill-rule:nonzero;stroke:#fff;stroke-width:83.33px;"/><path d="M3636.51,3414.84c-5.612,0 -15.15,-1.122 -28.617,-3.366c-13.467,-2.245 -25.811,-9.82 -37.033,-22.725c-11.223,-12.906 -16.834,-34.509 -16.834,-64.809c0,-15.711 1.684,-33.666 5.05,-53.866c8.978,-43.767 21.042,-87.814 36.192,-132.142c15.15,-44.328 31.703,-86.972 49.658,-127.933c17.956,-40.962 34.228,-76.592 48.817,-106.892c35.911,-76.311 78.275,-155.428 127.092,-237.35c48.816,-81.922 95.669,-158.795 140.558,-230.617c10.1,-15.711 26.933,-41.803 50.5,-78.275c23.567,-36.472 51.342,-77.433 83.325,-122.883c31.983,-45.45 65.369,-89.497 100.158,-132.142c34.789,-42.644 67.895,-78.555 99.317,-107.733c23.567,-22.445 43.767,-33.667 60.6,-33.667c16.833,0 25.25,9.539 25.25,28.617c-0,11.222 -3.647,24.689 -10.942,40.4c-7.294,15.711 -18.797,33.105 -34.508,52.183c-11.222,13.467 -27.214,32.545 -47.975,57.234c-20.761,24.688 -43.486,51.622 -68.175,80.8c-24.689,29.177 -48.817,57.513 -72.383,85.008c-23.567,27.494 -43.767,50.78 -60.6,69.858c-30.3,41.522 -59.759,84.728 -88.375,129.617c-28.617,44.889 -56.953,90.339 -85.009,136.35c-23.566,38.155 -48.255,80.8 -74.066,127.933c-25.812,47.134 -51.062,94.267 -75.75,141.4c-24.689,47.134 -46.012,91.742 -63.967,133.825c-17.956,42.084 -30.861,77.153 -38.717,105.209c-6.733,24.688 -13.466,51.061 -20.2,79.116c-6.733,28.056 -10.1,53.306 -10.1,75.75c0,14.589 2.245,26.372 6.734,35.35c4.488,8.978 11.783,13.467 21.883,13.467c19.078,-0 39.839,-8.697 62.283,-26.092c22.445,-17.394 45.17,-39.839 68.175,-67.333c23.006,-27.495 43.486,-56.392 61.442,-86.692c7.855,-12.344 17.394,-29.458 28.617,-51.341c11.222,-21.884 21.602,-45.45 31.141,-70.7c9.539,-25.25 14.309,-48.537 14.309,-69.859c-0,-5.611 -0.562,-10.661 -1.684,-15.15c-13.466,4.489 -27.494,6.734 -42.083,6.734c-28.056,-0 -49.939,-7.856 -65.65,-23.567c-15.711,-15.711 -22.445,-30.3 -20.2,-43.767c-0,-13.466 3.928,-23.005 11.783,-28.616c7.856,-5.612 16.834,-8.978 26.934,-10.1c10.1,-1.123 16.833,-1.684 20.2,-1.684c40.4,0 71.261,7.856 92.583,23.567c26.933,-20.2 47.694,-38.156 62.283,-53.867c14.589,-15.711 34.789,-37.594 60.6,-65.65c20.2,-21.322 40.681,-43.766 61.442,-67.333c20.761,-23.567 41.803,-47.133 63.125,-70.7c4.489,-5.611 10.1,-8.417 16.833,-8.417c5.611,0 10.661,3.086 15.15,9.259c4.489,6.172 6.734,13.747 6.734,22.725c-0,12.344 -3.928,23.005 -11.784,31.983c-26.933,31.422 -52.464,61.161 -76.591,89.217c-24.128,28.055 -49.098,54.988 -74.909,80.8c-17.955,17.955 -32.825,31.983 -44.608,42.083c-11.783,10.1 -26.653,21.322 -44.608,33.667c4.488,12.344 7.013,25.53 7.575,39.558c0.561,14.028 0.28,28.336 -0.842,42.925c-3.367,32.544 -15.711,71.261 -37.033,116.15c-21.323,44.889 -48.817,89.217 -82.484,132.983c-33.666,43.767 -70.7,79.959 -111.1,108.575c-40.4,28.617 -80.239,42.925 -119.516,42.925Zm196.95,-501.633c-0,3.367 8.977,5.05 26.933,5.05c6.733,-0 13.467,-0.561 20.2,-1.683c-10.1,-3.367 -22.445,-5.05 -37.033,-5.05c-6.734,-0 -10.1,0.561 -10.1,1.683Z" style="fill-rule:nonzero;stroke:#fff;stroke-width:83.33px;"/><path d="M4282.91,2886.28c-44.889,-0 -74.909,-16.273 -90.059,-48.817c-15.15,-32.545 -21.603,-67.895 -19.358,-106.05c2.244,-29.178 11.783,-64.528 28.617,-106.05c16.833,-41.522 38.997,-82.203 66.491,-122.042c27.495,-39.839 58.917,-73.225 94.267,-100.158c35.35,-26.933 73.225,-40.4 113.625,-40.4c40.4,-0 71.542,14.869 93.425,44.608c21.883,29.739 32.825,63.125 32.825,100.159c-0,20.2 -3.367,39.838 -10.1,58.916c13.467,3.367 29.739,5.05 48.817,5.05c29.177,0 60.88,-4.769 95.108,-14.308c34.228,-9.539 60.319,-26.092 78.275,-49.658c5.611,-5.612 11.783,-8.417 18.517,-8.417c6.733,-0 12.905,2.525 18.516,7.575c5.611,5.05 8.417,12.064 8.417,21.042c-0,13.466 -7.856,28.055 -23.567,43.766c-23.566,23.567 -51.622,39.559 -84.166,47.975c-32.545,8.417 -63.406,12.625 -92.584,12.625c-17.955,0 -34.228,-1.122 -48.816,-3.366c-14.589,-2.245 -26.373,-4.489 -35.35,-6.734c-15.712,41.522 -37.875,82.764 -66.492,123.725c-28.617,40.961 -62.003,74.628 -100.158,101c-38.156,26.372 -80.239,39.559 -126.25,39.559Zm3.366,-57.234c33.667,0 65.931,-11.783 96.792,-35.35c30.861,-23.566 58.355,-53.305 82.483,-89.216c24.128,-35.912 42.364,-72.945 54.709,-111.1c-14.589,-14.589 -25.531,-32.264 -32.825,-53.025c-7.295,-20.762 -10.942,-40.12 -10.942,-58.075c-0,-22.445 5.611,-42.084 16.833,-58.917c-3.366,-1.122 -8.416,-1.683 -15.15,-1.683c-22.444,-0 -46.853,10.38 -73.225,31.141c-26.372,20.761 -51.341,47.134 -74.908,79.117c-23.567,31.983 -43.206,65.369 -58.917,100.158c-15.711,34.789 -24.689,66.772 -26.933,95.95c-1.122,5.611 -1.683,11.222 -1.683,16.834l-0,16.833c-0,19.078 3.086,35.069 9.258,47.975c6.172,12.905 17.675,19.358 34.508,19.358Z" style="fill-rule:nonzero;stroke:#fff;stroke-width:83.33px;"/></g><g transform="matrix(0.986614,-0.163072,0.163072,0.986614,3.92857,-319.062)"><g transform="matrix(1683.33,0,0,1683.33,-376.555,2872.81)"><path d="M0.727,0.105c-0.017,0 -0.033,-0.002 -0.05,-0.007c-0.017,-0.005 -0.031,-0.01 -0.042,-0.017c-0.046,-0.027 -0.091,-0.064 -0.135,-0.109c-0.045,-0.046 -0.087,-0.096 -0.126,-0.151l-0.127,0.199c-0.004,0.006 -0.009,0.009 -0.016,0.009c-0.005,-0 -0.009,-0.002 -0.014,-0.006c-0.005,-0.003 -0.007,-0.008 -0.007,-0.013c0,-0.005 0.001,-0.009 0.004,-0.012l0.135,-0.212l-0.027,-0.042c-0.001,-0.002 -0.001,-0.004 -0.002,-0.006c-0.001,-0.002 -0.002,-0.004 -0.002,-0.006c0,-0.005 0.002,-0.01 0.007,-0.014c0.004,-0.004 0.008,-0.006 0.013,-0.006c0.007,-0 0.012,0.003 0.016,0.009l0.016,0.025l0.005,-0l0.142,-0.223c0.004,-0.007 0.009,-0.01 0.016,-0.01c0.005,0 0.01,0.002 0.014,0.006c0.004,0.004 0.006,0.009 0.006,0.015c0,0.003 -0.001,0.007 -0.003,0.011l-0.125,0.195c0.039,-0.006 0.076,-0.016 0.113,-0.03c0.036,-0.014 0.07,-0.031 0.103,-0.052c0.053,-0.034 0.08,-0.068 0.08,-0.102c0,-0.019 -0.01,-0.036 -0.03,-0.051c-0.021,-0.015 -0.052,-0.024 -0.095,-0.029c-0.007,-0.001 -0.014,-0.002 -0.021,-0.002l-0.024,-0c-0.033,-0 -0.068,0.003 -0.107,0.009c-0.039,0.006 -0.078,0.015 -0.117,0.027c-0.04,0.012 -0.078,0.027 -0.114,0.044c-0.037,0.018 -0.069,0.038 -0.097,0.061c-0.028,0.023 -0.05,0.049 -0.065,0.077c-0.007,0.015 -0.011,0.028 -0.011,0.04c0,0.015 0.005,0.027 0.016,0.037c0.011,0.01 0.026,0.015 0.047,0.015c0.019,-0 0.04,-0.003 0.061,-0.01c0.021,-0.006 0.037,-0.012 0.048,-0.019c0.005,-0.003 0.009,-0.004 0.013,-0.004c0.006,-0 0.009,0.003 0.009,0.009c0,0.004 -0.002,0.008 -0.005,0.013c-0.003,0.005 -0.009,0.01 -0.016,0.013c-0.021,0.009 -0.042,0.016 -0.061,0.02c-0.02,0.005 -0.038,0.007 -0.055,0.007c-0.029,-0 -0.052,-0.007 -0.069,-0.021c-0.017,-0.013 -0.025,-0.031 -0.025,-0.054c0,-0.017 0.004,-0.035 0.013,-0.053c0.016,-0.033 0.039,-0.063 0.069,-0.089c0.029,-0.026 0.063,-0.049 0.102,-0.068c0.038,-0.019 0.079,-0.035 0.122,-0.048c0.043,-0.012 0.085,-0.021 0.128,-0.028c0.043,-0.006 0.083,-0.009 0.121,-0.009c0.011,-0 0.023,0 0.034,0.001c0.011,0.001 0.022,0.002 0.032,0.003c0.047,0.005 0.081,0.018 0.104,0.037c0.023,0.02 0.034,0.043 0.034,0.068c0,0.022 -0.008,0.045 -0.025,0.069c-0.017,0.024 -0.042,0.046 -0.075,0.065c-0.025,0.015 -0.053,0.029 -0.083,0.041c-0.031,0.012 -0.061,0.022 -0.091,0.029c-0.03,0.008 -0.058,0.014 -0.084,0.017l-0.007,0.011c0.036,0.05 0.074,0.097 0.115,0.142c0.04,0.045 0.079,0.081 0.118,0.109c0.013,0.009 0.029,0.018 0.046,0.025c0.017,0.007 0.033,0.011 0.048,0.011c0.01,-0 0.018,-0.003 0.025,-0.008c0.007,-0.005 0.01,-0.013 0.01,-0.025c-0,-0.012 -0.003,-0.026 -0.01,-0.042c-0.007,-0.02 -0.017,-0.04 -0.029,-0.059c-0.012,-0.019 -0.022,-0.032 -0.029,-0.039c-0.001,-0.001 -0.002,-0.002 -0.002,-0.005c0,-0.003 0.001,-0.006 0.004,-0.009c0.003,-0.003 0.006,-0.004 0.011,-0.004c0.006,-0 0.013,0.003 0.02,0.01c0.013,0.012 0.026,0.028 0.037,0.047c0.012,0.019 0.022,0.039 0.029,0.058c0.008,0.02 0.012,0.036 0.012,0.048c-0,0.023 -0.008,0.039 -0.023,0.048c-0.015,0.009 -0.032,0.014 -0.052,0.014Z" style="fill:#009b77;fill-rule:nonzero;"/></g><g transform="matrix(1683.33,0,0,1683.33,965.062,2872.81)"><path d="M0.258,0.103c-0.015,0 -0.027,-0.004 -0.037,-0.013c-0.009,-0.008 -0.014,-0.022 -0.014,-0.042c0,-0.024 0.004,-0.049 0.012,-0.074c0.008,-0.025 0.017,-0.049 0.028,-0.072c-0.025,0.021 -0.051,0.042 -0.078,0.063c-0.027,0.02 -0.052,0.035 -0.073,0.046c-0.017,0.008 -0.031,0.012 -0.042,0.012c-0.012,0 -0.021,-0.004 -0.026,-0.012c-0.005,-0.008 -0.008,-0.018 -0.008,-0.029c0,-0.016 0.004,-0.033 0.013,-0.052c0.009,-0.019 0.021,-0.039 0.034,-0.058c0.013,-0.019 0.028,-0.039 0.044,-0.06c0.003,-0.004 0.008,-0.011 0.015,-0.021c0.007,-0.011 0.013,-0.022 0.019,-0.034c0.006,-0.012 0.009,-0.022 0.009,-0.031c0,-0.01 0.002,-0.017 0.006,-0.021c0.003,-0.005 0.007,-0.007 0.012,-0.007c0.007,0 0.013,0.004 0.018,0.011c0.003,0.003 0.004,0.01 0.004,0.019c0,0.009 -0.003,0.021 -0.009,0.036c-0.005,0.015 -0.016,0.032 -0.031,0.053c-0.012,0.016 -0.025,0.033 -0.039,0.052c-0.015,0.018 -0.027,0.036 -0.037,0.053c-0.01,0.017 -0.015,0.032 -0.015,0.044c0,0.009 0.004,0.013 0.011,0.013c0.005,0 0.011,-0.002 0.02,-0.006c0.01,-0.005 0.025,-0.014 0.045,-0.029c0.019,-0.015 0.04,-0.031 0.063,-0.05c0.022,-0.019 0.043,-0.037 0.062,-0.055c0.019,-0.018 0.034,-0.033 0.044,-0.045l0.003,-0.005c0.004,-0.007 0.009,-0.01 0.015,-0.01c0.005,0 0.009,0.002 0.013,0.005c0.003,0.003 0.005,0.008 0.005,0.013c0,0.004 -0.001,0.007 -0.002,0.009c-0.004,0.006 -0.011,0.017 -0.021,0.034c-0.01,0.017 -0.021,0.036 -0.032,0.058c-0.011,0.023 -0.021,0.046 -0.03,0.07c-0.008,0.024 -0.012,0.047 -0.012,0.068c0,0.011 0.002,0.018 0.007,0.023c0.004,0.005 0.009,0.007 0.016,0.007c0.009,0 0.019,-0.003 0.03,-0.008c0.011,-0.005 0.021,-0.01 0.03,-0.017c0.01,-0.007 0.017,-0.012 0.022,-0.015c0.019,-0.013 0.035,-0.027 0.048,-0.041c0.013,-0.014 0.028,-0.03 0.044,-0.047c0.012,-0.013 0.024,-0.026 0.036,-0.04c0.013,-0.014 0.025,-0.028 0.038,-0.042c0.003,-0.003 0.006,-0.005 0.01,-0.005c0.003,0 0.006,0.002 0.009,0.006c0.003,0.003 0.004,0.008 0.004,0.013c-0,0.007 -0.002,0.014 -0.007,0.019c-0.029,0.034 -0.058,0.067 -0.087,0.098c-0.029,0.031 -0.061,0.058 -0.094,0.081c-0.015,0.009 -0.031,0.018 -0.048,0.024c-0.017,0.007 -0.032,0.011 -0.047,0.011Z" style="fill:#009b77;fill-rule:nonzero;"/></g><g transform="matrix(1683.33,0,0,1683.33,1712.46,2872.81)"><path d="M0.281,0.103c-0.015,0 -0.027,-0.004 -0.037,-0.013c-0.009,-0.008 -0.014,-0.022 -0.014,-0.042c0,-0.023 0.004,-0.047 0.011,-0.071c0.007,-0.023 0.016,-0.046 0.026,-0.068c0,-0.001 0.001,-0.003 0.002,-0.006c-0.021,0.019 -0.043,0.039 -0.066,0.058c-0.023,0.019 -0.045,0.034 -0.066,0.046c-0.021,0.012 -0.038,0.018 -0.052,0.018c-0.018,0 -0.032,-0.006 -0.041,-0.017c-0.009,-0.011 -0.013,-0.024 -0.013,-0.041c-0,-0.019 0.005,-0.04 0.016,-0.066c0.011,-0.025 0.026,-0.05 0.044,-0.077c0.018,-0.027 0.038,-0.051 0.059,-0.074c0.022,-0.023 0.044,-0.041 0.066,-0.055c0.021,-0.015 0.041,-0.022 0.06,-0.022c0.019,0 0.036,0.007 0.051,0.02c0.016,0.012 0.023,0.031 0.023,0.054c0,0.008 -0.001,0.014 -0.004,0.017c-0.003,0.003 -0.006,0.005 -0.009,0.005c-0.006,-0 -0.01,-0.003 -0.011,-0.01c-0.003,-0.021 -0.009,-0.035 -0.02,-0.042c-0.01,-0.006 -0.02,-0.009 -0.03,-0.009c-0.013,0 -0.029,0.006 -0.047,0.019c-0.017,0.013 -0.036,0.03 -0.055,0.051c-0.019,0.021 -0.036,0.044 -0.052,0.067c-0.016,0.024 -0.029,0.047 -0.039,0.068c-0.01,0.022 -0.015,0.04 -0.015,0.054c-0,0.006 0.001,0.012 0.003,0.017c0.003,0.005 0.006,0.008 0.011,0.008c0.01,-0 0.024,-0.005 0.041,-0.016c0.017,-0.011 0.036,-0.024 0.057,-0.041c0.021,-0.017 0.041,-0.034 0.062,-0.053c0.021,-0.019 0.039,-0.037 0.056,-0.054c0.017,-0.017 0.029,-0.03 0.038,-0.041c0,-0.001 0.001,-0.002 0.002,-0.003c0.013,-0.021 0.028,-0.045 0.045,-0.072l0.097,-0.153c0.015,-0.023 0.026,-0.041 0.035,-0.055c0.01,-0.014 0.014,-0.021 0.014,-0.021c0.004,-0.006 0.009,-0.009 0.016,-0.009c0.005,-0 0.01,0.002 0.014,0.006c0.004,0.004 0.006,0.009 0.006,0.014c0,0.003 -0.001,0.007 -0.003,0.011c-0.046,0.071 -0.084,0.129 -0.114,0.175c-0.03,0.047 -0.054,0.084 -0.072,0.112c-0.018,0.028 -0.032,0.049 -0.041,0.064c-0.009,0.015 -0.015,0.026 -0.019,0.033c-0.003,0.007 -0.006,0.013 -0.009,0.018c-0.01,0.021 -0.019,0.042 -0.026,0.065c-0.007,0.023 -0.011,0.044 -0.011,0.064c0,0.011 0.002,0.018 0.007,0.023c0.004,0.005 0.009,0.007 0.016,0.007c0.009,-0 0.019,-0.003 0.03,-0.008c0.011,-0.005 0.021,-0.01 0.03,-0.017c0.01,-0.007 0.017,-0.012 0.022,-0.015c0.019,-0.013 0.035,-0.027 0.048,-0.041c0.013,-0.014 0.028,-0.03 0.044,-0.047c0.012,-0.013 0.024,-0.026 0.036,-0.04c0.013,-0.014 0.025,-0.028 0.038,-0.042c0.003,-0.003 0.006,-0.005 0.01,-0.005c0.003,-0 0.006,0.002 0.009,0.005c0.003,0.004 0.004,0.009 0.004,0.014c-0,0.007 -0.002,0.014 -0.007,0.019c-0.029,0.034 -0.058,0.067 -0.087,0.098c-0.029,0.031 -0.061,0.058 -0.094,0.081c-0.015,0.009 -0.031,0.017 -0.048,0.024c-0.017,0.007 -0.032,0.011 -0.047,0.011Z" style="fill:#009b77;fill-rule:nonzero;"/></g><g transform="matrix(1683.33,0,0,1683.33,2498.58,2872.81)"><path d="M0.127,0.008c-0.027,0 -0.045,-0.01 -0.054,-0.029c-0.009,-0.019 -0.012,-0.04 -0.011,-0.063c0.001,-0.017 0.007,-0.038 0.017,-0.063c0.01,-0.025 0.023,-0.049 0.039,-0.072c0.017,-0.024 0.035,-0.044 0.056,-0.06c0.021,-0.016 0.044,-0.024 0.068,-0.024c0.024,0 0.043,0.009 0.055,0.027c0.013,0.017 0.02,0.037 0.02,0.059c-0,0.012 -0.002,0.024 -0.006,0.035c0.008,0.002 0.018,0.003 0.029,0.003c0.017,0 0.036,-0.003 0.056,-0.008c0.021,-0.006 0.036,-0.016 0.047,-0.03c0.003,-0.003 0.007,-0.005 0.011,-0.005c0.004,0 0.008,0.002 0.011,0.005c0.003,0.003 0.005,0.007 0.005,0.012c-0,0.008 -0.005,0.017 -0.014,0.026c-0.014,0.014 -0.031,0.024 -0.05,0.029c-0.019,0.005 -0.038,0.007 -0.055,0.007c-0.011,0 -0.02,-0.001 -0.029,-0.002c-0.009,-0.001 -0.016,-0.003 -0.021,-0.004c-0.009,0.025 -0.023,0.049 -0.04,0.074c-0.017,0.024 -0.036,0.044 -0.059,0.06c-0.023,0.015 -0.048,0.023 -0.075,0.023Zm0.002,-0.034c0.02,0 0.039,-0.007 0.057,-0.021c0.019,-0.014 0.035,-0.032 0.049,-0.053c0.015,-0.021 0.026,-0.043 0.033,-0.066c-0.009,-0.009 -0.015,-0.019 -0.02,-0.031c-0.004,-0.013 -0.006,-0.024 -0.006,-0.035c-0,-0.013 0.003,-0.025 0.01,-0.035c-0.002,-0.001 -0.005,-0.001 -0.009,-0.001c-0.013,0 -0.028,0.006 -0.043,0.019c-0.016,0.012 -0.031,0.027 -0.045,0.047c-0.014,0.019 -0.026,0.038 -0.035,0.059c-0.009,0.021 -0.015,0.04 -0.016,0.057c-0.001,0.003 -0.001,0.007 -0.001,0.01l0,0.01c0,0.011 0.002,0.021 0.006,0.029c0.003,0.007 0.01,0.011 0.02,0.011Z" style="fill:#009b77;fill-rule:nonzero;"/></g><g transform="matrix(1683.33,0,0,1683.33,3032.19,2872.81)"><path d="M0.128,0.121c-0.029,0 -0.052,-0.008 -0.071,-0.025c-0.018,-0.018 -0.027,-0.044 -0.027,-0.08c0,-0.029 0.006,-0.063 0.019,-0.102c0.012,-0.039 0.028,-0.08 0.049,-0.123c0.02,-0.043 0.043,-0.086 0.069,-0.128c0.026,-0.041 0.053,-0.079 0.08,-0.114c0.027,-0.035 0.054,-0.062 0.079,-0.083c0.015,-0.012 0.03,-0.018 0.045,-0.018c0.011,0 0.02,0.003 0.028,0.009c0.007,0.006 0.012,0.014 0.013,0.024c0.001,0.003 0.001,0.007 0.001,0.013c0,0.018 -0.005,0.041 -0.015,0.068c-0.013,0.034 -0.031,0.069 -0.054,0.104c-0.024,0.036 -0.051,0.072 -0.081,0.107c-0.03,0.035 -0.061,0.069 -0.093,0.101c-0.032,0.033 -0.063,0.062 -0.093,0.089c-0.001,0.001 -0.001,0.003 -0.001,0.005c-0.001,0.009 -0.003,0.016 -0.004,0.023c-0.001,0.007 -0.001,0.014 -0.001,0.021c0,0.025 0.006,0.043 0.017,0.054c0.011,0.011 0.025,0.017 0.043,0.017c0.027,-0 0.057,-0.01 0.091,-0.031c0.025,-0.015 0.049,-0.033 0.071,-0.054c0.022,-0.021 0.042,-0.041 0.06,-0.06c0.012,-0.013 0.024,-0.026 0.036,-0.04c0.013,-0.014 0.025,-0.028 0.038,-0.042c0.003,-0.003 0.006,-0.005 0.01,-0.005c0.003,0 0.006,0.002 0.009,0.005c0.003,0.004 0.004,0.009 0.004,0.014c0,0.007 -0.002,0.014 -0.007,0.019c-0.032,0.038 -0.065,0.075 -0.1,0.112c-0.035,0.037 -0.073,0.068 -0.116,0.091c-0.035,0.019 -0.068,0.029 -0.099,0.029Zm-0.036,-0.214c0.024,-0.022 0.049,-0.048 0.076,-0.077c0.027,-0.029 0.053,-0.059 0.079,-0.091c0.026,-0.032 0.049,-0.064 0.07,-0.096c0.02,-0.032 0.035,-0.062 0.046,-0.091c0.007,-0.018 0.01,-0.033 0.01,-0.044c0,-0.013 -0.004,-0.019 -0.011,-0.019c-0.005,-0 -0.013,0.005 -0.022,0.014c-0.033,0.032 -0.065,0.07 -0.097,0.114c-0.033,0.045 -0.062,0.092 -0.088,0.141c-0.027,0.05 -0.048,0.1 -0.063,0.149Z" style="fill:#009b77;fill-rule:nonzero;"/></g><g transform="matrix(1683.33,0,0,1683.33,3626.41,2872.81)"><path d="M0.006,0.322c-0.003,0 -0.009,-0.001 -0.017,-0.002c-0.008,-0.001 -0.015,-0.006 -0.022,-0.014c-0.007,-0.007 -0.01,-0.02 -0.01,-0.038c0,-0.009 0.001,-0.02 0.003,-0.032c0.005,-0.026 0.013,-0.052 0.022,-0.079c0.009,-0.026 0.018,-0.051 0.029,-0.076c0.011,-0.024 0.02,-0.045 0.029,-0.063c0.021,-0.045 0.047,-0.092 0.076,-0.141c0.028,-0.049 0.056,-0.094 0.083,-0.137c0.006,-0.009 0.016,-0.025 0.03,-0.046c0.014,-0.022 0.031,-0.047 0.05,-0.074c0.019,-0.027 0.038,-0.053 0.059,-0.078c0.021,-0.025 0.04,-0.047 0.059,-0.064c0.014,-0.013 0.026,-0.02 0.036,-0.02c0.01,0 0.015,0.006 0.015,0.017c-0,0.007 -0.002,0.015 -0.007,0.024c-0.004,0.009 -0.011,0.02 -0.02,0.031c-0.007,0.008 -0.016,0.019 -0.029,0.034c-0.012,0.015 -0.025,0.031 -0.04,0.048c-0.015,0.017 -0.029,0.034 -0.043,0.05c-0.014,0.017 -0.026,0.031 -0.036,0.042c-0.018,0.025 -0.036,0.05 -0.053,0.077c-0.017,0.027 -0.033,0.054 -0.05,0.081c-0.014,0.023 -0.029,0.048 -0.044,0.076c-0.015,0.028 -0.03,0.056 -0.045,0.084c-0.015,0.028 -0.027,0.054 -0.038,0.079c-0.011,0.025 -0.018,0.046 -0.023,0.063c-0.004,0.015 -0.008,0.03 -0.012,0.047c-0.004,0.017 -0.006,0.032 -0.006,0.045c-0,0.009 0.001,0.016 0.004,0.021c0.003,0.005 0.007,0.008 0.013,0.008c0.011,0 0.024,-0.005 0.037,-0.016c0.013,-0.01 0.027,-0.023 0.04,-0.04c0.014,-0.016 0.026,-0.033 0.037,-0.051c0.005,-0.007 0.01,-0.017 0.017,-0.031c0.007,-0.013 0.013,-0.026 0.018,-0.041c0.006,-0.015 0.009,-0.029 0.009,-0.042c-0,-0.003 -0,-0.006 -0.001,-0.009c-0.008,0.003 -0.016,0.004 -0.025,0.004c-0.017,0 -0.03,-0.005 -0.039,-0.014c-0.009,-0.009 -0.013,-0.018 -0.012,-0.026c-0,-0.008 0.002,-0.014 0.007,-0.017c0.005,-0.003 0.01,-0.005 0.016,-0.006c0.006,-0.001 0.01,-0.001 0.012,-0.001c0.024,0 0.042,0.005 0.055,0.014c0.016,-0.012 0.028,-0.023 0.037,-0.032c0.009,-0.009 0.021,-0.022 0.036,-0.039c0.012,-0.013 0.024,-0.026 0.036,-0.04c0.013,-0.014 0.025,-0.028 0.038,-0.042c0.003,-0.003 0.006,-0.005 0.01,-0.005c0.003,0 0.006,0.002 0.009,0.006c0.003,0.003 0.004,0.008 0.004,0.013c-0,0.007 -0.002,0.014 -0.007,0.019c-0.016,0.019 -0.031,0.036 -0.046,0.053c-0.014,0.017 -0.029,0.033 -0.044,0.048c-0.011,0.011 -0.02,0.019 -0.027,0.025c-0.007,0.006 -0.015,0.013 -0.026,0.02c0.003,0.007 0.004,0.015 0.004,0.024c0.001,0.008 0.001,0.016 -0,0.025c-0.002,0.019 -0.009,0.042 -0.022,0.069c-0.013,0.027 -0.029,0.053 -0.049,0.079c-0.02,0.026 -0.042,0.048 -0.066,0.065c-0.024,0.017 -0.048,0.025 -0.071,0.025Zm0.117,-0.298c-0,0.002 0.005,0.003 0.016,0.003c0.004,-0 0.008,-0 0.012,-0.001c-0.006,-0.002 -0.013,-0.003 -0.022,-0.003c-0.004,-0 -0.006,0 -0.006,0.001Z" style="fill:#009b77;fill-rule:nonzero;"/></g><g transform="matrix(1683.33,0,0,1683.33,4069.13,2872.81)"><path d="M0.127,0.008c-0.027,0 -0.045,-0.01 -0.054,-0.029c-0.009,-0.019 -0.012,-0.04 -0.011,-0.063c0.001,-0.017 0.007,-0.038 0.017,-0.063c0.01,-0.025 0.023,-0.049 0.039,-0.072c0.017,-0.024 0.035,-0.044 0.056,-0.06c0.021,-0.016 0.044,-0.024 0.068,-0.024c0.024,0 0.043,0.009 0.055,0.027c0.013,0.017 0.02,0.037 0.02,0.059c-0,0.012 -0.002,0.024 -0.006,0.035c0.008,0.002 0.018,0.003 0.029,0.003c0.017,0 0.036,-0.003 0.056,-0.008c0.021,-0.006 0.036,-0.016 0.047,-0.03c0.003,-0.003 0.007,-0.005 0.011,-0.005c0.004,0 0.008,0.002 0.011,0.005c0.003,0.003 0.005,0.007 0.005,0.012c-0,0.008 -0.005,0.017 -0.014,0.026c-0.014,0.014 -0.031,0.024 -0.05,0.029c-0.019,0.005 -0.038,0.007 -0.055,0.007c-0.011,0 -0.02,-0.001 -0.029,-0.002c-0.009,-0.001 -0.016,-0.003 -0.021,-0.004c-0.009,0.025 -0.023,0.049 -0.04,0.074c-0.017,0.024 -0.036,0.044 -0.059,0.06c-0.023,0.015 -0.048,0.023 -0.075,0.023Zm0.002,-0.034c0.02,0 0.039,-0.007 0.057,-0.021c0.019,-0.014 0.035,-0.032 0.049,-0.053c0.015,-0.021 0.026,-0.043 0.033,-0.066c-0.009,-0.009 -0.015,-0.019 -0.02,-0.031c-0.004,-0.013 -0.006,-0.024 -0.006,-0.035c-0,-0.013 0.003,-0.025 0.01,-0.035c-0.002,-0.001 -0.005,-0.001 -0.009,-0.001c-0.013,0 -0.028,0.006 -0.043,0.019c-0.016,0.012 -0.031,0.027 -0.045,0.047c-0.014,0.019 -0.026,0.038 -0.035,0.059c-0.009,0.021 -0.015,0.04 -0.016,0.057c-0.001,0.003 -0.001,0.007 -0.001,0.01l0,0.01c0,0.011 0.002,0.021 0.006,0.029c0.003,0.007 0.01,0.011 0.02,0.011Z" style="fill:#009b77;fill-rule:nonzero;"/></g></g></g></svg>