<svg xmlns="http://www.w3.org/2000/svg" xml:space="preserve" style="fill-rule:evenodd;clip-rule:evenodd;stroke-linejoin:round;stroke-miterlimit:2" viewBox="0 0 2134 2134"><path fill="#0f0f0f" d="M2133.33 216.32C2133.33 96.93 2036.401 0 1917.01 0H216.32C96.93 0 0 96.93 0 216.32v1700.69c0 119.391 96.93 216.32 216.32 216.32h1700.69c119.391 0 216.32-96.929 216.32-216.32z" style="fill:#fff"/><ellipse cx="1145.71" cy="1173.69" rx="651.756" ry="825.794" style="fill:#ebebeb"/><path d="M1145.71 342.571c-362.272 0-657.083 372.112-657.083 831.122s294.811 831.121 657.083 831.121 657.083-372.111 657.083-831.121-294.811-831.122-657.083-831.122m0 10.656c357.155 0 646.428 367.94 646.428 820.466s-289.273 820.466-646.428 820.466-646.428-367.94-646.428-820.466 289.273-820.466 646.428-820.466"/><path d="M1122.63 1401.31h46.173v59.438h-46.173z"/><path d="M1191.97 1460.75h-92.347l23.087-78.14h46.173z"/><path d="m1140.67 1401.31 5.039 58.887-410.509 35.127zm10.078 0-5.039 58.887 410.509 35.127zM1024.26 714.386c540.752-158.234 985.709-266.42 993.019-241.44 7.309 24.98-425.778 173.726-966.531 331.961-540.752 158.234-985.709 266.42-993.019 241.44-7.309-24.98 425.778-173.727 966.531-331.961"/><path d="M1635.16 600.11 506.91 919.463l.107-506.008c.006-29.749 19.769-55.876 48.393-63.978l755.877-213.953c19.059-5.394 39.383 2.524 49.768 19.391z"/><path d="M1635.16 600.11 506.91 919.463l.107-506.008c.006-29.749 19.769-55.876 48.393-63.978l755.877-213.953c19.059-5.394 39.383 2.524 49.768 19.391zm-8.602-3.352L512.478 912.1l.105-498.644c.006-27.258 18.114-51.198 44.342-58.622l755.877-213.952c16.662-4.716 34.43 2.207 43.509 16.953z"/><path d="M1627.31 554.035 502.46 883.9l-5.066-141.674 1057.67-310.163 72.249 121.972Z" style="fill:#fff"/><path d="M1627.31 554.035 502.46 883.9l-5.066-141.674 1057.67-310.163 72.249 121.972Zm-11.816-4.656L509.894 873.6 505.403 748l1046.04-306.754z"/></svg>