<?xml version="1.0" standalone="no"?>
<!DOCTYPE svg PUBLIC "-//W3C//DTD SVG 20010904//EN"
 "http://www.w3.org/TR/2001/REC-SVG-20010904/DTD/svg10.dtd">
<svg version="1.0" xmlns="http://www.w3.org/2000/svg"
 width="700.000000pt" height="700.000000pt" viewBox="0 0 700.000000 700.000000"
 preserveAspectRatio="xMidYMid meet">
<metadata>
Created by potrace 1.14, written by Peter Selinger 2001-2017
</metadata>
<g transform="translate(0.000000,700.000000) scale(0.100000,-0.100000)"
fill="#000000" stroke="none">
<path d="M4105 6542 c-11 -2 -200 -55 -420 -117 -220 -63 -578 -164 -795 -225
-217 -61 -408 -116 -425 -121 -26 -8 -263 -75 -455 -128 -209 -58 -388 -110
-411 -119 -40 -16 -88 -61 -112 -106 -22 -41 -22 -46 -23 -595 -1 -491 -3
-556 -17 -566 -13 -9 -15 -28 -12 -106 2 -52 6 -148 7 -213 l3 -119 -70 -24
c-38 -13 -110 -37 -160 -53 -233 -74 -798 -276 -965 -345 -172 -71 -264 -124
-247 -141 14 -14 135 -4 272 21 126 24 124 24 180 35 28 6 59 12 70 14 11 2
110 25 220 51 110 26 225 53 255 60 30 7 148 36 263 65 114 29 209 51 211 49
2 -2 -2 -35 -9 -74 -17 -88 -23 -131 -31 -197 -3 -29 -7 -64 -9 -77 -22 -136
-22 -658 -1 -723 3 -7 7 -38 10 -68 20 -210 89 -488 187 -750 77 -207 276
-570 376 -687 10 -11 32 -38 48 -59 155 -198 403 -417 595 -526 101 -57 120
-67 200 -102 180 -79 353 -127 525 -143 432 -42 842 67 1210 323 39 26 72 51
75 54 3 3 21 17 40 31 36 28 57 46 150 134 329 309 586 754 729 1260 31 112
54 215 66 295 4 24 8 47 10 50 2 3 6 34 10 70 4 36 8 67 10 70 9 15 19 223 20
410 0 224 -8 361 -31 490 -2 14 -7 45 -10 70 -3 25 -8 47 -9 50 -2 3 -6 25
-10 50 -10 66 -59 257 -95 368 -84 259 -205 512 -341 713 l-37 55 216 74 c120
40 303 104 407 142 105 39 215 79 245 90 30 11 70 26 88 34 17 8 47 20 65 28
104 45 156 71 186 93 29 22 31 27 17 35 -16 9 -116 5 -168 -6 -13 -3 -39 -8
-58 -10 -19 -3 -79 -14 -134 -26 -54 -11 -110 -22 -125 -25 -53 -9 -268 -58
-316 -71 -27 -7 -135 -34 -240 -59 -104 -25 -197 -48 -206 -51 -18 -5 -40 28
-169 249 -70 118 -77 127 -100 122 -13 -4 -28 -7 -33 -8 -7 -2 -264 400 -284
443 -4 8 -14 26 -24 40 -9 14 -74 117 -143 230 -131 214 -140 226 -168 248
-21 17 -76 29 -103 24z"/>
</g>
</svg>
